<?xml version="1.0" encoding="UTF-8"?>
<svg xmlns="http://www.w3.org/2000/svg" xmlns:xlink="http://www.w3.org/1999/xlink" viewBox="0 0 30 30" width="30px" height="30px">
<g id="surface52782787">
<path style=" stroke:none;fill-rule:nonzero;fill:rgb(36.862746%,50.588238%,99.607843%);fill-opacity:1;" d="M 6 4 C 4.90625 4 4 4.90625 4 6 L 4 8 L 6 8 L 6 6 L 24 6 L 24 8 L 26 8 L 26 6 C 26 4.90625 25.09375 4 24 4 Z M 8.027344 10 C 7.546875 9.988281 7.128906 10.316406 7.023438 10.78125 L 5.023438 19.78125 L 6.976562 20.214844 L 8.226562 14.601562 L 9.558594 18.335938 C 9.699219 18.734375 10.078125 19 10.5 19 C 10.921875 19 11.300781 18.734375 11.441406 18.335938 L 12.773438 14.601562 L 14.023438 20.214844 L 15.976562 19.78125 L 13.976562 10.78125 C 13.878906 10.347656 13.507812 10.03125 13.0625 10.003906 C 12.617188 9.976562 12.207031 10.246094 12.058594 10.664062 L 10.5 15.027344 L 8.941406 10.664062 C 8.804688 10.273438 8.441406 10.011719 8.027344 10 Z M 19 10 C 18.449219 10 18 10.449219 18 11 L 18 19 C 18 19.550781 18.449219 20 19 20 L 23 20 C 24.644531 20 26 18.644531 26 17 C 26 15.878906 25.269531 15.078125 24.347656 14.5625 C 24.664062 14.089844 25 13.605469 25 13 C 25 11.355469 23.644531 10 22 10 Z M 20 12 L 22 12 C 22.566406 12 23 12.433594 23 13 C 23 13.566406 22.566406 14 22 14 L 21.5 14 L 21.5 16 L 23 16 C 23.566406 16 24 16.433594 24 17 C 24 17.566406 23.566406 18 23 18 L 20 18 Z M 4 22 L 4 24 C 4 25.09375 4.90625 26 6 26 L 24 26 C 25.09375 26 26 25.09375 26 24 L 26 22 L 24 22 L 24 24 L 6 24 L 6 22 Z M 4 22 "/>
</g>
</svg>
