<svg fill="#000000" xmlns="http://www.w3.org/2000/svg"  viewBox="0 0 30 30" width="30px" height="30px"><path d="M 6 4 C 4.9069372 4 4 4.9069372 4 6 L 4 8 L 6 8 L 6 6 L 24 6 L 24 8 L 26 8 L 26 6 C 26 4.9069372 25.093063 4 24 4 L 6 4 z M 8.0273438 10 A 1.0001 1.0001 0 0 0 7.0234375 10.783203 L 5.0234375 19.783203 L 6.9765625 20.216797 L 8.2246094 14.601562 L 9.5585938 18.335938 A 1.0001 1.0001 0 0 0 11.441406 18.335938 L 12.775391 14.601562 L 14.023438 20.216797 L 15.976562 19.783203 L 13.976562 10.783203 A 1.0001 1.0001 0 0 0 12.058594 10.664062 L 10.5 15.027344 L 8.9414062 10.664062 A 1.0001 1.0001 0 0 0 8.0273438 10 z M 19 10 A 1.0001 1.0001 0 0 0 18 11 L 18 15 L 18 19 A 1.0001 1.0001 0 0 0 19 20 L 23 20 C 24.64497 20 26 18.64497 26 17 C 26 15.878645 25.269617 15.076989 24.347656 14.5625 C 24.663261 14.08792 25 13.607113 25 13 C 25 11.35503 23.64497 10 22 10 L 19 10 z M 20 12 L 22 12 C 22.56503 12 23 12.43497 23 13 C 23 13.56503 22.56503 14 22 14 L 21.5 14 L 21.5 16 L 22 16 L 23 16 C 23.56503 16 24 16.43497 24 17 C 24 17.56503 23.56503 18 23 18 L 20 18 L 20 15 L 20 12 z M 4 22 L 4 24 C 4 25.093063 4.9069372 26 6 26 L 24 26 C 25.093063 26 26 25.093063 26 24 L 26 22 L 24 22 L 24 24 L 6 24 L 6 22 L 4 22 z"/></svg>